<svg width="150" height="150" viewBox="0 0 150 150" fill="none" xmlns="http://www.w3.org/2000/svg">
<path d="M26.6197 0.0514044C19.6292 0.925291 13.6591 3.82968 8.76067 8.76456C4.2704 13.2882 1.41295 18.7886 0.341413 25.0086C-0.0157677 27.0391 -0.0412806 33.0021 0.0352581 76.1309C0.111797 129.746 0.00974524 125.634 1.64257 130.209C5.41848 140.824 14.6797 148.381 25.5992 149.717C27.1555 149.897 37.2586 150 56.6739 150H85.4269V144.911V139.847L58.0771 139.925C40.9069 139.976 29.7323 139.899 28.0739 139.719C23.252 139.256 19.4506 137.509 16.0829 134.219C13.0979 131.314 11.1334 127.69 10.419 123.758C10.1894 122.524 10.1128 110.341 10.1384 74.8201C10.1384 28.1957 10.1639 27.5017 10.6741 25.4712C10.9548 24.3403 11.7202 22.3098 12.3835 20.9733C13.404 18.8914 13.9143 18.1717 16.0063 16.0898C18.7362 13.3653 21.1089 11.926 24.7062 10.8722L26.6197 10.3324L73.9461 10.2553C126.094 10.1525 123.747 10.1011 127.676 11.7461C132.728 13.8537 136.861 18.3516 138.596 23.5949C139.718 26.9106 139.795 29.0182 139.718 49.7087L139.642 69.037H144.821H150L149.898 47.6268C149.796 24.2375 149.847 25.1371 148.214 20.2279C145.306 11.4633 138.315 4.31803 129.87 1.46504C125.431 -0.0514058 129.309 0.0514044 76.1147 -7.15256e-07C49.3262 -7.15256e-07 27.0534 -7.15256e-07 26.6197 0.0514044Z" fill="#007AFF"/>
<path d="M32.2064 34.6465C30.6756 35.1606 28.9663 36.7027 28.1499 38.322C27.1549 40.2754 27.1038 42.7685 27.9968 44.6962C29.1449 47.0608 32.0278 48.9885 34.4005 48.9885C36.3905 48.9885 38.0234 48.2689 39.5541 46.6753C41.6462 44.5163 42.233 42.3316 41.4166 39.5557C40.5236 36.5485 37.9723 34.5694 34.8087 34.4409C33.8137 34.3895 32.6401 34.4923 32.2064 34.6465Z" fill="#007AFF"/>
<path d="M55.4518 36.7813C55.3242 36.8327 54.8905 36.9355 54.5078 37.0126C53.5638 37.2182 52.0075 38.6319 51.5993 39.66C50.8084 41.5362 51.3187 43.6953 52.8495 45.0575C53.3597 45.5201 54.2016 46.0085 54.7374 46.137C56.2172 46.5739 111.963 46.5225 113.341 46.1113C113.902 45.9314 114.795 45.3659 115.305 44.8519C117.474 42.6672 116.989 39.0688 114.259 37.4752L113.111 36.7813L84.4089 36.7299C68.6164 36.7042 55.6048 36.7299 55.4518 36.7813Z" fill="#007AFF"/>
<path d="M33.2011 62.3806C31.0836 62.7661 28.9405 64.3854 27.8689 66.4673C27.1291 67.8295 27.2056 71.3765 27.971 72.8158C29.91 76.517 34.0431 77.9306 37.5894 76.1057C39.2987 75.2318 40.855 73.407 41.3397 71.7363C41.7735 70.2198 41.6459 67.9323 41.0591 66.6215C40.5233 65.3621 38.916 63.6143 37.7679 63.0231C36.7219 62.4834 34.4768 62.1749 33.2011 62.3806Z" fill="#007AFF"/>
<path d="M54.3297 65.2079C52.2122 66.0561 51.1406 67.8038 51.2937 70.1171C51.4213 71.8391 51.906 72.6359 53.5133 73.7925L54.6104 74.5636H75.0462C97.8292 74.5636 96.2219 74.6921 97.8802 72.7901C98.9518 71.5307 99.3089 70.1685 98.9262 68.6263C98.5436 67.1356 97.0893 65.5934 95.7116 65.2079C94.4615 64.8481 55.2227 64.8481 54.3297 65.2079Z" fill="#007AFF"/>
<path d="M140.507 78.3672C139.87 78.5472 139.028 78.9584 138.594 79.2411C137.931 79.7552 129.027 88.7254 106.932 111.189L98.7173 119.543L88.8183 109.622C82.3635 103.144 78.5621 99.5461 77.8988 99.2377C76.368 98.4923 73.2809 98.4152 71.8522 99.0578C70.2704 99.7518 68.9182 101.011 68.1273 102.553C67.566 103.633 67.4385 104.198 67.464 105.792C67.464 109.133 67.1578 108.773 81.445 123.218C90.5531 132.42 94.5587 136.301 95.3751 136.712C97.0334 137.534 100.631 137.509 102.264 136.686C103.922 135.838 148.187 91.0129 149.156 89.2137C149.743 88.1085 149.845 87.6202 149.845 85.7439C149.845 83.3535 149.437 82.2483 147.906 80.5006C146.299 78.65 142.957 77.6733 140.507 78.3672Z" fill="#007AFF"/>
</svg>
