<svg width="120" height="45" viewBox="0 0 120 45" fill="none" xmlns="http://www.w3.org/2000/svg">
<path d="M55.675 11.0938C55.925 11.4479 56.175 11.9479 56.425 12.5938C56.675 13.2396 56.9146 13.9479 57.1437 14.7188C57.3729 15.4896 57.5917 16.2812 57.8 17.0938C58.0083 17.9062 58.1854 18.6458 58.3312 19.3125C58.4771 19.9792 58.5917 20.5312 58.675 20.9688C58.7583 21.3854 58.8 21.5938 58.8 21.5938C58.8 21.9062 58.7271 22.1875 58.5812 22.4375C58.4562 22.6875 58.1229 22.8125 57.5812 22.8125C57.2687 22.8125 57.0083 22.7083 56.8 22.5C56.6125 22.2708 56.4458 21.9688 56.3 21.5938C56.175 21.1979 56.0604 20.75 55.9562 20.25C55.8729 19.7292 55.7792 19.1667 55.675 18.5625C55.5083 17.6875 55.3625 16.9479 55.2375 16.3438C55.1125 15.7396 54.9979 15.2604 54.8937 14.9062C54.6646 15.7188 54.4875 16.4062 54.3625 16.9688C54.2583 17.5312 54.1437 18.0938 54.0187 18.6562C53.9146 19.1979 53.7687 19.8021 53.5812 20.4688C53.4146 21.1146 53.1646 21.9375 52.8312 22.9375C52.5396 23.375 52.1542 23.5938 51.675 23.5938C51.0083 23.5104 50.6333 23.1042 50.55 22.375C50.55 22.2083 50.55 22.0938 50.55 22.0312C50.55 21.9479 50.5708 21.8542 50.6125 21.75C50.4875 21.3125 50.3521 20.7604 50.2062 20.0938C50.0604 19.4271 49.9146 18.75 49.7687 18.0625C49.6229 17.375 49.4875 16.7396 49.3625 16.1562C49.2583 15.5729 49.175 15.1562 49.1125 14.9062C48.8833 15.7188 48.7062 16.4062 48.5812 16.9688C48.4771 17.5312 48.3625 18.0938 48.2375 18.6562C48.1333 19.1979 47.9875 19.8021 47.8 20.4688C47.6333 21.1146 47.3833 21.9375 47.05 22.9375C46.7583 23.375 46.3729 23.5938 45.8937 23.5938C45.2271 23.5104 44.8521 23.1042 44.7687 22.375C44.7687 22.1042 44.8208 21.7292 44.925 21.25C45.05 20.7708 45.1958 20.25 45.3625 19.6875C45.55 19.125 45.7375 18.5417 45.925 17.9375C46.1125 17.3125 46.2896 16.7188 46.4562 16.1562C46.6021 15.6146 46.7583 15.0312 46.925 14.4062C47.1125 13.7812 47.3104 13.2083 47.5187 12.6875C47.7479 12.1458 47.9979 11.7083 48.2687 11.375C48.5396 11.0208 48.8312 10.8438 49.1437 10.8438C49.5187 10.8438 49.8312 11.0208 50.0812 11.375C50.3521 11.7292 50.5917 12.2083 50.8 12.8125C51.0083 13.3958 51.2062 14.0625 51.3937 14.8125C51.5812 15.5625 51.7792 16.3229 51.9875 17.0938L52.2375 16.1562C52.3833 15.6146 52.55 15.0312 52.7375 14.4062C52.925 13.7812 53.1229 13.2083 53.3312 12.6875C53.5604 12.1458 53.8 11.7083 54.05 11.375C54.3208 11.0208 54.6125 10.8438 54.925 10.8438C55.1958 10.8438 55.4458 10.9271 55.675 11.0938ZM65.9875 18.75C65.6333 18.7292 65.2479 18.7188 64.8312 18.7188C64.4354 18.6979 64.0083 18.6875 63.55 18.6875H62.7062C62.6854 19.2917 62.6646 19.9062 62.6437 20.5312C62.6437 21.1562 62.5917 21.7292 62.4875 22.25C62.4042 22.7708 62.2583 23.1979 62.05 23.5312C61.8417 23.8438 61.5187 24 61.0812 24C60.7271 24 60.425 23.875 60.175 23.625C59.925 23.375 59.8 23.0104 59.8 22.5312L60.05 18.8125C60.0917 18.5208 60.1229 18.2292 60.1437 17.9375C60.1646 17.625 60.175 17.2917 60.175 16.9375C60.175 16.5625 60.1542 16.1667 60.1125 15.75C60.0708 15.3125 60.0292 14.875 59.9875 14.4375C59.9458 14 59.9042 13.5729 59.8625 13.1562C59.8208 12.7188 59.8 12.3125 59.8 11.9375C59.8 11.1875 59.9146 10.6667 60.1437 10.375C60.3729 10.0833 60.7062 9.9375 61.1437 9.9375C61.5187 9.9375 61.8104 10.0938 62.0187 10.4062C62.2271 10.6979 62.3833 11.1146 62.4875 11.6562C62.5917 12.1771 62.6542 12.8229 62.675 13.5938C62.6958 14.3438 62.7062 15.1667 62.7062 16.0625C62.8104 16.0833 62.9042 16.0938 62.9875 16.0938C63.0708 16.0938 63.1646 16.0938 63.2687 16.0938C63.4562 16.0938 63.6437 16.0938 63.8312 16.0938C64.0396 16.0729 64.2479 16.0625 64.4562 16.0625C64.7479 16.0625 65.0187 16.0729 65.2687 16.0938C65.5396 16.0938 65.8104 16.1042 66.0812 16.125C66.0812 15.5833 66.0604 15.0417 66.0187 14.5C65.9979 13.9375 65.9562 13.4062 65.8937 12.9062C65.8521 12.4062 65.8104 11.9688 65.7687 11.5938C65.7479 11.1979 65.7375 10.8958 65.7375 10.6875C65.7375 9.9375 65.8521 9.41667 66.0812 9.125C66.3104 8.83333 66.6437 8.6875 67.0812 8.6875C67.4979 8.6875 67.8104 8.88542 68.0187 9.28125C68.2271 9.65625 68.3625 10.1042 68.425 10.625C68.5083 11.125 68.55 11.6458 68.55 12.1875C68.55 12.7083 68.5604 13.125 68.5812 13.4375C68.6437 14.9792 68.675 16.2917 68.675 17.375C68.675 18.2917 68.675 19.1875 68.675 20.0625C68.675 20.9167 68.6229 21.6875 68.5187 22.375C68.4354 23.0417 68.2792 23.5833 68.05 24C67.8208 24.4167 67.4771 24.625 67.0187 24.625C66.6646 24.625 66.3625 24.5 66.1125 24.25C65.8625 24 65.7375 23.6354 65.7375 23.1562L65.9875 18.8438V18.75ZM59.925 28.625C59.7375 28.625 59.5604 28.6354 59.3937 28.6562C59.2271 28.6562 59.0604 28.6562 58.8937 28.6562C58.3104 28.6562 57.7792 28.6354 57.3 28.5938C56.8417 28.5312 56.4042 28.5 55.9875 28.5C55.8208 28.5 55.7271 28.6042 55.7062 28.8125C55.6854 29 55.675 29.2292 55.675 29.5C55.675 30.375 55.6854 31.1042 55.7062 31.6875C55.7271 32.2708 55.7583 32.6771 55.8 32.9062L56.0812 33.0312C56.5187 33.1771 57.175 33.3229 58.05 33.4688C58.925 33.6146 60.0292 33.6875 61.3625 33.6875C61.8833 33.6875 62.3833 33.6667 62.8625 33.625C63.3417 33.6042 63.7687 33.5625 64.1437 33.5C64.5187 33.4583 64.8104 33.3958 65.0187 33.3125C65.2479 33.2292 65.3625 33.1354 65.3625 33.0312C65.3833 32.9271 65.3937 32.7917 65.3937 32.625C65.4146 32.4583 65.425 32.2604 65.425 32.0312C65.425 31.8646 65.425 31.6458 65.425 31.375C65.425 31.1042 65.4146 30.8333 65.3937 30.5625C65.3729 30.2708 65.3521 29.9896 65.3312 29.7188C65.3104 29.4479 65.2896 29.2188 65.2687 29.0312C65.2062 29.0104 65.1229 29 65.0187 29C64.9354 29 64.8417 28.9896 64.7375 28.9688C63.6958 28.8646 62.7792 28.7917 61.9875 28.75C61.1958 28.6875 60.5083 28.6458 59.925 28.625ZM60.175 26.1875C60.5917 26.1875 61.175 26.1979 61.925 26.2188C62.675 26.2188 63.425 26.25 64.175 26.3125C64.9458 26.375 65.6542 26.4688 66.3 26.5938C66.9458 26.6979 67.3625 26.8646 67.55 27.0938C67.6542 27.3229 67.7271 27.6458 67.7687 28.0625C67.8312 28.4583 67.8729 28.9062 67.8937 29.4062C67.9354 29.8854 67.9562 30.3958 67.9562 30.9375C67.9562 31.4583 67.9562 31.9583 67.9562 32.4375C67.9562 33.2917 67.8208 33.9688 67.55 34.4688C67.2792 34.9688 66.8625 35.3438 66.3 35.5938C65.7375 35.8646 65.0083 36.0312 64.1125 36.0938C63.2375 36.1771 62.1958 36.2188 60.9875 36.2188C60.675 36.2188 60.1854 36.2083 59.5187 36.1875C58.8521 36.1667 58.1437 36.1042 57.3937 36C56.6646 35.8958 55.9667 35.7396 55.3 35.5312C54.6542 35.3229 54.1854 35.0312 53.8937 34.6562C53.7271 34.4271 53.5917 34.1042 53.4875 33.6875C53.4042 33.2917 53.3312 32.8333 53.2687 32.3125C53.2271 31.8125 53.1958 31.2812 53.175 30.7188C53.1542 30.1354 53.1437 29.5521 53.1437 28.9688C53.1437 28.7396 53.1437 28.5417 53.1437 28.375C53.1437 28.2083 53.1542 28.0417 53.175 27.875V27.625C53.175 27.0208 53.3104 26.6146 53.5812 26.4062C53.8521 26.1979 54.2479 26.0938 54.7687 26.0938L60.175 26.1875ZM77.5625 12.75C77.7917 12.7708 78.0417 12.7812 78.3125 12.7812C78.5833 12.7812 78.875 12.7812 79.1875 12.7812C79.4792 12.7812 79.7917 12.7812 80.125 12.7812C80.4583 12.7812 80.8021 12.7708 81.1562 12.75L85.5 12.6562C85.9167 12.7812 86.2292 12.9688 86.4375 13.2188C86.6458 13.4688 86.75 13.7292 86.75 14C86.6458 14.75 86.2188 15.1875 85.4688 15.3125L81.1562 15.4062C80.7188 15.4271 80.2917 15.4479 79.875 15.4688C79.4792 15.4688 79.1042 15.4688 78.75 15.4688C78.5833 15.4688 78.4271 15.4688 78.2812 15.4688C78.1562 15.4479 78.0312 15.4375 77.9062 15.4375L78.2188 16.5L78.5 17.0625C78.5208 17.0833 78.5625 17.1042 78.625 17.125C78.7083 17.125 78.8542 17.125 79.0625 17.125H79.4062H79.875C80.2917 17.125 80.8229 17.1042 81.4688 17.0625C82.1146 17.0208 82.75 16.9688 83.375 16.9062C84 16.8438 84.5521 16.7917 85.0312 16.75C85.5104 16.6875 85.7917 16.6458 85.875 16.625C86.1875 16.5625 86.4479 16.5312 86.6562 16.5312C87.0104 16.5312 87.3021 16.6562 87.5312 16.9062C87.7604 17.1354 87.875 17.4688 87.875 17.9062C87.875 18.2188 87.8021 18.4688 87.6562 18.6562C87.5104 18.8438 87.2604 19 86.9062 19.125C86.5729 19.2292 86.1146 19.3229 85.5312 19.4062C84.9688 19.4688 84.25 19.5312 83.375 19.5938C82.2917 19.6979 81.3646 19.7708 80.5938 19.8125C79.8229 19.8333 79.1979 19.8438 78.7188 19.8438C78.2396 19.8438 77.8542 19.8021 77.5625 19.7188C77.2708 19.6146 77.0208 19.4688 76.8125 19.2812C76.625 19.0938 76.4583 18.875 76.3125 18.625C76.1875 18.375 76.0417 18.0938 75.875 17.7812L75.4375 16.8125C75.4167 16.7083 75.3542 16.5208 75.25 16.25C75.1667 15.9792 75.0833 15.6042 75 15.125L74.8438 14.2812C74.8229 14.2396 74.8021 14.125 74.7812 13.9375C74.7812 13.75 74.7812 13.5625 74.7812 13.375C74.7604 13.1458 74.75 12.9062 74.75 12.6562C74.7708 12.6146 74.7708 12.5208 74.75 12.375C74.75 12.2083 74.7708 11.9896 74.8125 11.7188C74.8542 11.1354 74.9375 10.6458 75.0625 10.25C75.2083 9.85417 75.5 9.53125 75.9375 9.28125C76.3958 9.01042 77.0625 8.8125 77.9375 8.6875C78.8125 8.54167 80 8.44792 81.5 8.40625C81.9792 8.40625 82.4688 8.41667 82.9688 8.4375C83.4896 8.4375 83.9583 8.44792 84.375 8.46875C84.8125 8.48958 85.1771 8.51042 85.4688 8.53125C85.7812 8.53125 85.9688 8.53125 86.0312 8.53125C86.4688 8.67708 86.7812 8.875 86.9688 9.125C87.1562 9.35417 87.25 9.60417 87.25 9.875C87.25 10.1875 87.1354 10.4688 86.9062 10.7188C86.6771 10.9688 86.3542 11.125 85.9375 11.1875H82.9062C82.2812 11.1667 81.6875 11.1771 81.125 11.2188C80.5833 11.2396 80.0729 11.25 79.5938 11.25H78.4375C78.2917 11.25 78.1458 11.2604 78 11.2812C77.8542 11.2812 77.7083 11.2917 77.5625 11.3125V11.4375V12.75ZM83.375 22.9062C85.0625 22.8646 86.6042 22.8021 88 22.7188C89.4167 22.6146 90.6875 22.4792 91.8125 22.3125H92.0625C92.5 22.3125 92.8229 22.4167 93.0312 22.625C93.2604 22.8333 93.4062 23.0521 93.4688 23.2812C93.4688 23.7188 93.3854 24.0521 93.2188 24.2812C93.0729 24.5104 92.7812 24.6979 92.3438 24.8438C90.9062 25.0521 89.3125 25.2188 87.5625 25.3438C85.8333 25.4479 83.9167 25.5 81.8125 25.5C79.6875 25.5 77.7917 25.4583 76.125 25.375C74.4792 25.2917 73.0312 25.1875 71.7812 25.0625C71.4271 25.0208 71.1354 24.8854 70.9062 24.6562C70.6771 24.4062 70.5625 24.1042 70.5625 23.75C70.5625 23.4167 70.6667 23.1354 70.875 22.9062C71.0833 22.6562 71.3542 22.5104 71.6875 22.4688C74.5 22.7812 77.5104 22.9375 80.7188 22.9375V22.2188C80.7188 22.2604 80.7083 22.2812 80.6875 22.2812C80.6875 22.2812 80.6562 21.3333 80.5938 19.4375C80.6771 19.0417 80.8333 18.75 81.0625 18.5625C81.3125 18.3542 81.5729 18.25 81.8438 18.25C82.3854 18.25 82.7604 18.4583 82.9688 18.875C83.1771 19.2917 83.2917 19.75 83.3125 20.25C83.3542 20.7292 83.3542 21.1771 83.3125 21.5938C83.2917 22.0104 83.3125 22.2188 83.375 22.2188V22.1562V22.9062ZM89.4375 34.625C89.4167 34.8542 89.3854 35.1354 89.3438 35.4688C89.3021 35.8021 89.2188 36.1146 89.0938 36.4062C88.9896 36.6979 88.8333 36.9479 88.625 37.1562C88.4167 37.3646 88.1354 37.4688 87.7812 37.4688C87.6771 37.4688 87.5521 37.4479 87.4062 37.4062C87.2604 37.3854 87.1146 37.3333 86.9688 37.25C86.8438 37.1667 86.7292 37.0417 86.625 36.875C86.5417 36.7292 86.5 36.5208 86.5 36.25C86.5 36.0625 86.5312 35.8229 86.5938 35.5312L86.6875 34.9688C86.7292 34.7188 86.7604 34.4896 86.7812 34.2812C86.8229 34.0729 86.8542 33.8542 86.875 33.625C86.9167 33.3958 86.9479 33.125 86.9688 32.8125C86.9896 32.5 87 32.1146 87 31.6562C87 31.3646 86.9479 31.1354 86.8438 30.9688C86.7396 30.7812 86.5938 30.6354 86.4062 30.5312C86.2396 30.4271 86.0521 30.3542 85.8438 30.3125C85.6354 30.2708 85.4271 30.2396 85.2188 30.2188C84.7604 30.1979 84.3333 30.1771 83.9375 30.1562C83.5417 30.1146 83.1458 30.0833 82.75 30.0625C82.3542 30.0417 81.9479 30.0208 81.5312 30C81.1146 29.9792 80.6667 29.9688 80.1875 29.9688C79.25 29.9688 78.4271 29.9792 77.7188 30C77.0104 30 76.4062 30 75.9062 30C75.0938 29.875 74.6875 29.5104 74.6875 28.9062C74.6875 28.6146 74.7708 28.3125 74.9375 28C75.1042 27.6667 75.375 27.4375 75.75 27.3125C76.6042 27.3125 77.4062 27.3333 78.1562 27.375C78.9271 27.3958 79.6458 27.4167 80.3125 27.4375L84.9062 27.5625L86.0312 27.6562C86.4479 27.6979 86.9167 27.8021 87.4375 27.9688C87.9792 28.1354 88.4271 28.4271 88.7812 28.8438C89.1979 29.3646 89.4375 29.8229 89.5 30.2188C89.5833 30.5938 89.625 31.0208 89.625 31.5C89.625 31.9375 89.6042 32.4167 89.5625 32.9375C89.5208 33.4583 89.4792 34.0208 89.4375 34.625ZM102.513 12.75C102.742 12.7708 102.992 12.7812 103.263 12.7812C103.533 12.7812 103.825 12.7812 104.138 12.7812C104.429 12.7812 104.742 12.7812 105.075 12.7812C105.408 12.7812 105.752 12.7708 106.106 12.75L110.45 12.6562C110.867 12.7812 111.179 12.9688 111.388 13.2188C111.596 13.4688 111.7 13.7292 111.7 14C111.596 14.75 111.169 15.1875 110.419 15.3125L106.106 15.4062C105.669 15.4271 105.242 15.4479 104.825 15.4688C104.429 15.4688 104.054 15.4688 103.7 15.4688C103.533 15.4688 103.377 15.4688 103.231 15.4688C103.106 15.4479 102.981 15.4375 102.856 15.4375L103.169 16.5L103.45 17.0625C103.471 17.0833 103.513 17.1042 103.575 17.125C103.658 17.125 103.804 17.125 104.013 17.125H104.356H104.825C105.242 17.125 105.773 17.1042 106.419 17.0625C107.065 17.0208 107.7 16.9688 108.325 16.9062C108.95 16.8438 109.502 16.7917 109.981 16.75C110.46 16.6875 110.742 16.6458 110.825 16.625C111.138 16.5625 111.398 16.5312 111.606 16.5312C111.96 16.5312 112.252 16.6562 112.481 16.9062C112.71 17.1354 112.825 17.4688 112.825 17.9062C112.825 18.2188 112.752 18.4688 112.606 18.6562C112.46 18.8438 112.21 19 111.856 19.125C111.523 19.2292 111.065 19.3229 110.481 19.4062C109.919 19.4688 109.2 19.5312 108.325 19.5938C107.242 19.6979 106.315 19.7708 105.544 19.8125C104.773 19.8333 104.148 19.8438 103.669 19.8438C103.19 19.8438 102.804 19.8021 102.513 19.7188C102.221 19.6146 101.971 19.4688 101.763 19.2812C101.575 19.0938 101.408 18.875 101.263 18.625C101.138 18.375 100.992 18.0938 100.825 17.7812L100.388 16.8125C100.367 16.7083 100.304 16.5208 100.2 16.25C100.117 15.9792 100.033 15.6042 99.95 15.125L99.7938 14.2812C99.7729 14.2396 99.7521 14.125 99.7313 13.9375C99.7313 13.75 99.7313 13.5625 99.7313 13.375C99.7104 13.1458 99.7 12.9062 99.7 12.6562C99.7208 12.6146 99.7208 12.5208 99.7 12.375C99.7 12.2083 99.7208 11.9896 99.7625 11.7188C99.8042 11.1354 99.8875 10.6458 100.013 10.25C100.158 9.85417 100.45 9.53125 100.888 9.28125C101.346 9.01042 102.013 8.8125 102.888 8.6875C103.763 8.54167 104.95 8.44792 106.45 8.40625C106.929 8.40625 107.419 8.41667 107.919 8.4375C108.44 8.4375 108.908 8.44792 109.325 8.46875C109.763 8.48958 110.127 8.51042 110.419 8.53125C110.731 8.53125 110.919 8.53125 110.981 8.53125C111.419 8.67708 111.731 8.875 111.919 9.125C112.106 9.35417 112.2 9.60417 112.2 9.875C112.2 10.1875 112.085 10.4688 111.856 10.7188C111.627 10.9688 111.304 11.125 110.888 11.1875H107.856C107.231 11.1667 106.638 11.1771 106.075 11.2188C105.533 11.2396 105.023 11.25 104.544 11.25H103.388C103.242 11.25 103.096 11.2604 102.95 11.2812C102.804 11.2812 102.658 11.2917 102.513 11.3125V11.4375V12.75ZM108.325 22.9062C110.013 22.8646 111.554 22.8021 112.95 22.7188C114.367 22.6146 115.638 22.4792 116.763 22.3125H117.013C117.45 22.3125 117.773 22.4167 117.981 22.625C118.21 22.8333 118.356 23.0521 118.419 23.2812C118.419 23.7188 118.335 24.0521 118.169 24.2812C118.023 24.5104 117.731 24.6979 117.294 24.8438C115.856 25.0521 114.263 25.2188 112.513 25.3438C110.783 25.4479 108.867 25.5 106.763 25.5C104.638 25.5 102.742 25.4583 101.075 25.375C99.4292 25.2917 97.9813 25.1875 96.7313 25.0625C96.3771 25.0208 96.0854 24.8854 95.8563 24.6562C95.6271 24.4062 95.5125 24.1042 95.5125 23.75C95.5125 23.4167 95.6167 23.1354 95.825 22.9062C96.0333 22.6562 96.3042 22.5104 96.6375 22.4688C99.45 22.7812 102.46 22.9375 105.669 22.9375V22.2188C105.669 22.2604 105.658 22.2812 105.638 22.2812C105.638 22.2812 105.606 21.3333 105.544 19.4375C105.627 19.0417 105.783 18.75 106.013 18.5625C106.263 18.3542 106.523 18.25 106.794 18.25C107.335 18.25 107.71 18.4583 107.919 18.875C108.127 19.2917 108.242 19.75 108.263 20.25C108.304 20.7292 108.304 21.1771 108.263 21.5938C108.242 22.0104 108.263 22.2188 108.325 22.2188V22.1562V22.9062ZM114.388 34.625C114.367 34.8542 114.335 35.1354 114.294 35.4688C114.252 35.8021 114.169 36.1146 114.044 36.4062C113.94 36.6979 113.783 36.9479 113.575 37.1562C113.367 37.3646 113.085 37.4688 112.731 37.4688C112.627 37.4688 112.502 37.4479 112.356 37.4062C112.21 37.3854 112.065 37.3333 111.919 37.25C111.794 37.1667 111.679 37.0417 111.575 36.875C111.492 36.7292 111.45 36.5208 111.45 36.25C111.45 36.0625 111.481 35.8229 111.544 35.5312L111.638 34.9688C111.679 34.7188 111.71 34.4896 111.731 34.2812C111.773 34.0729 111.804 33.8542 111.825 33.625C111.867 33.3958 111.898 33.125 111.919 32.8125C111.94 32.5 111.95 32.1146 111.95 31.6562C111.95 31.3646 111.898 31.1354 111.794 30.9688C111.69 30.7812 111.544 30.6354 111.356 30.5312C111.19 30.4271 111.002 30.3542 110.794 30.3125C110.585 30.2708 110.377 30.2396 110.169 30.2188C109.71 30.1979 109.283 30.1771 108.888 30.1562C108.492 30.1146 108.096 30.0833 107.7 30.0625C107.304 30.0417 106.898 30.0208 106.481 30C106.065 29.9792 105.617 29.9688 105.138 29.9688C104.2 29.9688 103.377 29.9792 102.669 30C101.96 30 101.356 30 100.856 30C100.044 29.875 99.6375 29.5104 99.6375 28.9062C99.6375 28.6146 99.7208 28.3125 99.8875 28C100.054 27.6667 100.325 27.4375 100.7 27.3125C101.554 27.3125 102.356 27.3333 103.106 27.375C103.877 27.3958 104.596 27.4167 105.263 27.4375L109.856 27.5625L110.981 27.6562C111.398 27.6979 111.867 27.8021 112.388 27.9688C112.929 28.1354 113.377 28.4271 113.731 28.8438C114.148 29.3646 114.388 29.8229 114.45 30.2188C114.533 30.5938 114.575 31.0208 114.575 31.5C114.575 31.9375 114.554 32.4167 114.513 32.9375C114.471 33.4583 114.429 34.0208 114.388 34.625Z" fill="#007AFF"/>
<g opacity="0.9">
<rect x="9.37109" y="14.7852" width="19" height="9" rx="3.5" transform="rotate(45 9.37109 14.7852)" fill="#EAEFFF" stroke="#007AFF"/>
<rect x="9.32471" y="28.2131" width="30" height="10" rx="4" transform="rotate(-45 9.32471 28.2131)" fill="#007AFF"/>
</g>
</svg>
