<svg width="76" height="45" viewBox="0 0 76 45" fill="none" xmlns="http://www.w3.org/2000/svg">
<path d="M11.675 11.0938C11.925 11.4479 12.175 11.9479 12.425 12.5938C12.675 13.2396 12.9146 13.9479 13.1437 14.7188C13.3729 15.4896 13.5917 16.2812 13.8 17.0938C14.0083 17.9062 14.1854 18.6458 14.3312 19.3125C14.4771 19.9792 14.5917 20.5312 14.675 20.9688C14.7583 21.3854 14.8 21.5938 14.8 21.5938C14.8 21.9062 14.7271 22.1875 14.5812 22.4375C14.4562 22.6875 14.1229 22.8125 13.5812 22.8125C13.2687 22.8125 13.0083 22.7083 12.8 22.5C12.6125 22.2708 12.4458 21.9688 12.3 21.5938C12.175 21.1979 12.0604 20.75 11.9562 20.25C11.8729 19.7292 11.7792 19.1667 11.675 18.5625C11.5083 17.6875 11.3625 16.9479 11.2375 16.3438C11.1125 15.7396 10.9979 15.2604 10.8937 14.9062C10.6646 15.7188 10.4875 16.4062 10.3625 16.9688C10.2583 17.5312 10.1437 18.0938 10.0187 18.6562C9.91458 19.1979 9.76875 19.8021 9.58125 20.4688C9.41458 21.1146 9.16458 21.9375 8.83125 22.9375C8.53958 23.375 8.15417 23.5938 7.675 23.5938C7.00833 23.5104 6.63333 23.1042 6.55 22.375C6.55 22.2083 6.55 22.0938 6.55 22.0312C6.55 21.9479 6.57083 21.8542 6.6125 21.75C6.4875 21.3125 6.35208 20.7604 6.20625 20.0938C6.06042 19.4271 5.91458 18.75 5.76875 18.0625C5.62292 17.375 5.4875 16.7396 5.3625 16.1562C5.25833 15.5729 5.175 15.1562 5.1125 14.9062C4.88333 15.7188 4.70625 16.4062 4.58125 16.9688C4.47708 17.5312 4.3625 18.0938 4.2375 18.6562C4.13333 19.1979 3.9875 19.8021 3.8 20.4688C3.63333 21.1146 3.38333 21.9375 3.05 22.9375C2.75833 23.375 2.37292 23.5938 1.89375 23.5938C1.22708 23.5104 0.852083 23.1042 0.768749 22.375C0.768749 22.1042 0.820833 21.7292 0.924999 21.25C1.05 20.7708 1.19583 20.25 1.3625 19.6875C1.55 19.125 1.7375 18.5417 1.925 17.9375C2.1125 17.3125 2.28958 16.7188 2.45625 16.1562C2.60208 15.6146 2.75833 15.0312 2.925 14.4062C3.1125 13.7812 3.31042 13.2083 3.51875 12.6875C3.74792 12.1458 3.99792 11.7083 4.26875 11.375C4.53958 11.0208 4.83125 10.8438 5.14375 10.8438C5.51875 10.8438 5.83125 11.0208 6.08125 11.375C6.35208 11.7292 6.59167 12.2083 6.8 12.8125C7.00833 13.3958 7.20625 14.0625 7.39375 14.8125C7.58125 15.5625 7.77917 16.3229 7.9875 17.0938L8.2375 16.1562C8.38333 15.6146 8.55 15.0312 8.7375 14.4062C8.925 13.7812 9.12292 13.2083 9.33125 12.6875C9.56042 12.1458 9.8 11.7083 10.05 11.375C10.3208 11.0208 10.6125 10.8438 10.925 10.8438C11.1958 10.8438 11.4458 10.9271 11.675 11.0938ZM21.9875 18.75C21.6333 18.7292 21.2479 18.7188 20.8312 18.7188C20.4354 18.6979 20.0083 18.6875 19.55 18.6875H18.7062C18.6854 19.2917 18.6646 19.9062 18.6437 20.5312C18.6437 21.1562 18.5917 21.7292 18.4875 22.25C18.4042 22.7708 18.2583 23.1979 18.05 23.5312C17.8417 23.8438 17.5187 24 17.0812 24C16.7271 24 16.425 23.875 16.175 23.625C15.925 23.375 15.8 23.0104 15.8 22.5312L16.05 18.8125C16.0917 18.5208 16.1229 18.2292 16.1437 17.9375C16.1646 17.625 16.175 17.2917 16.175 16.9375C16.175 16.5625 16.1542 16.1667 16.1125 15.75C16.0708 15.3125 16.0292 14.875 15.9875 14.4375C15.9458 14 15.9042 13.5729 15.8625 13.1562C15.8208 12.7188 15.8 12.3125 15.8 11.9375C15.8 11.1875 15.9146 10.6667 16.1437 10.375C16.3729 10.0833 16.7062 9.9375 17.1437 9.9375C17.5187 9.9375 17.8104 10.0938 18.0187 10.4062C18.2271 10.6979 18.3833 11.1146 18.4875 11.6562C18.5917 12.1771 18.6542 12.8229 18.675 13.5938C18.6958 14.3438 18.7062 15.1667 18.7062 16.0625C18.8104 16.0833 18.9042 16.0938 18.9875 16.0938C19.0708 16.0938 19.1646 16.0938 19.2687 16.0938C19.4562 16.0938 19.6437 16.0938 19.8312 16.0938C20.0396 16.0729 20.2479 16.0625 20.4562 16.0625C20.7479 16.0625 21.0187 16.0729 21.2687 16.0938C21.5396 16.0938 21.8104 16.1042 22.0812 16.125C22.0812 15.5833 22.0604 15.0417 22.0187 14.5C21.9979 13.9375 21.9562 13.4062 21.8937 12.9062C21.8521 12.4062 21.8104 11.9688 21.7687 11.5938C21.7479 11.1979 21.7375 10.8958 21.7375 10.6875C21.7375 9.9375 21.8521 9.41667 22.0812 9.125C22.3104 8.83333 22.6437 8.6875 23.0812 8.6875C23.4979 8.6875 23.8104 8.88542 24.0187 9.28125C24.2271 9.65625 24.3625 10.1042 24.425 10.625C24.5083 11.125 24.55 11.6458 24.55 12.1875C24.55 12.7083 24.5604 13.125 24.5812 13.4375C24.6437 14.9792 24.675 16.2917 24.675 17.375C24.675 18.2917 24.675 19.1875 24.675 20.0625C24.675 20.9167 24.6229 21.6875 24.5187 22.375C24.4354 23.0417 24.2792 23.5833 24.05 24C23.8208 24.4167 23.4771 24.625 23.0187 24.625C22.6646 24.625 22.3625 24.5 22.1125 24.25C21.8625 24 21.7375 23.6354 21.7375 23.1562L21.9875 18.8438V18.75ZM15.925 28.625C15.7375 28.625 15.5604 28.6354 15.3937 28.6562C15.2271 28.6562 15.0604 28.6562 14.8937 28.6562C14.3104 28.6562 13.7792 28.6354 13.3 28.5938C12.8417 28.5312 12.4042 28.5 11.9875 28.5C11.8208 28.5 11.7271 28.6042 11.7062 28.8125C11.6854 29 11.675 29.2292 11.675 29.5C11.675 30.375 11.6854 31.1042 11.7062 31.6875C11.7271 32.2708 11.7583 32.6771 11.8 32.9062L12.0812 33.0312C12.5187 33.1771 13.175 33.3229 14.05 33.4688C14.925 33.6146 16.0292 33.6875 17.3625 33.6875C17.8833 33.6875 18.3833 33.6667 18.8625 33.625C19.3417 33.6042 19.7687 33.5625 20.1437 33.5C20.5187 33.4583 20.8104 33.3958 21.0187 33.3125C21.2479 33.2292 21.3625 33.1354 21.3625 33.0312C21.3833 32.9271 21.3937 32.7917 21.3937 32.625C21.4146 32.4583 21.425 32.2604 21.425 32.0312C21.425 31.8646 21.425 31.6458 21.425 31.375C21.425 31.1042 21.4146 30.8333 21.3937 30.5625C21.3729 30.2708 21.3521 29.9896 21.3312 29.7188C21.3104 29.4479 21.2896 29.2188 21.2687 29.0312C21.2062 29.0104 21.1229 29 21.0187 29C20.9354 29 20.8417 28.9896 20.7375 28.9688C19.6958 28.8646 18.7792 28.7917 17.9875 28.75C17.1958 28.6875 16.5083 28.6458 15.925 28.625ZM16.175 26.1875C16.5917 26.1875 17.175 26.1979 17.925 26.2188C18.675 26.2188 19.425 26.25 20.175 26.3125C20.9458 26.375 21.6542 26.4688 22.3 26.5938C22.9458 26.6979 23.3625 26.8646 23.55 27.0938C23.6542 27.3229 23.7271 27.6458 23.7687 28.0625C23.8312 28.4583 23.8729 28.9062 23.8937 29.4062C23.9354 29.8854 23.9562 30.3958 23.9562 30.9375C23.9562 31.4583 23.9562 31.9583 23.9562 32.4375C23.9562 33.2917 23.8208 33.9688 23.55 34.4688C23.2792 34.9688 22.8625 35.3438 22.3 35.5938C21.7375 35.8646 21.0083 36.0312 20.1125 36.0938C19.2375 36.1771 18.1958 36.2188 16.9875 36.2188C16.675 36.2188 16.1854 36.2083 15.5187 36.1875C14.8521 36.1667 14.1437 36.1042 13.3937 36C12.6646 35.8958 11.9667 35.7396 11.3 35.5312C10.6542 35.3229 10.1854 35.0312 9.89375 34.6562C9.72708 34.4271 9.59167 34.1042 9.4875 33.6875C9.40417 33.2917 9.33125 32.8333 9.26875 32.3125C9.22708 31.8125 9.19583 31.2812 9.175 30.7188C9.15417 30.1354 9.14375 29.5521 9.14375 28.9688C9.14375 28.7396 9.14375 28.5417 9.14375 28.375C9.14375 28.2083 9.15417 28.0417 9.175 27.875V27.625C9.175 27.0208 9.31042 26.6146 9.58125 26.4062C9.85208 26.1979 10.2479 26.0938 10.7687 26.0938L16.175 26.1875ZM33.5625 12.75C33.7917 12.7708 34.0417 12.7812 34.3125 12.7812C34.5833 12.7812 34.875 12.7812 35.1875 12.7812C35.4792 12.7812 35.7917 12.7812 36.125 12.7812C36.4583 12.7812 36.8021 12.7708 37.1562 12.75L41.5 12.6562C41.9167 12.7812 42.2292 12.9688 42.4375 13.2188C42.6458 13.4688 42.75 13.7292 42.75 14C42.6458 14.75 42.2188 15.1875 41.4688 15.3125L37.1562 15.4062C36.7188 15.4271 36.2917 15.4479 35.875 15.4688C35.4792 15.4688 35.1042 15.4688 34.75 15.4688C34.5833 15.4688 34.4271 15.4688 34.2812 15.4688C34.1562 15.4479 34.0312 15.4375 33.9062 15.4375L34.2188 16.5L34.5 17.0625C34.5208 17.0833 34.5625 17.1042 34.625 17.125C34.7083 17.125 34.8542 17.125 35.0625 17.125H35.4062H35.875C36.2917 17.125 36.8229 17.1042 37.4688 17.0625C38.1146 17.0208 38.75 16.9688 39.375 16.9062C40 16.8438 40.5521 16.7917 41.0312 16.75C41.5104 16.6875 41.7917 16.6458 41.875 16.625C42.1875 16.5625 42.4479 16.5312 42.6562 16.5312C43.0104 16.5312 43.3021 16.6562 43.5312 16.9062C43.7604 17.1354 43.875 17.4688 43.875 17.9062C43.875 18.2188 43.8021 18.4688 43.6562 18.6562C43.5104 18.8438 43.2604 19 42.9062 19.125C42.5729 19.2292 42.1146 19.3229 41.5312 19.4062C40.9688 19.4688 40.25 19.5312 39.375 19.5938C38.2917 19.6979 37.3646 19.7708 36.5938 19.8125C35.8229 19.8333 35.1979 19.8438 34.7188 19.8438C34.2396 19.8438 33.8542 19.8021 33.5625 19.7188C33.2708 19.6146 33.0208 19.4688 32.8125 19.2812C32.625 19.0938 32.4583 18.875 32.3125 18.625C32.1875 18.375 32.0417 18.0938 31.875 17.7812L31.4375 16.8125C31.4167 16.7083 31.3542 16.5208 31.25 16.25C31.1667 15.9792 31.0833 15.6042 31 15.125L30.8438 14.2812C30.8229 14.2396 30.8021 14.125 30.7812 13.9375C30.7812 13.75 30.7812 13.5625 30.7812 13.375C30.7604 13.1458 30.75 12.9062 30.75 12.6562C30.7708 12.6146 30.7708 12.5208 30.75 12.375C30.75 12.2083 30.7708 11.9896 30.8125 11.7188C30.8542 11.1354 30.9375 10.6458 31.0625 10.25C31.2083 9.85417 31.5 9.53125 31.9375 9.28125C32.3958 9.01042 33.0625 8.8125 33.9375 8.6875C34.8125 8.54167 36 8.44792 37.5 8.40625C37.9792 8.40625 38.4688 8.41667 38.9688 8.4375C39.4896 8.4375 39.9583 8.44792 40.375 8.46875C40.8125 8.48958 41.1771 8.51042 41.4688 8.53125C41.7812 8.53125 41.9688 8.53125 42.0312 8.53125C42.4688 8.67708 42.7812 8.875 42.9688 9.125C43.1562 9.35417 43.25 9.60417 43.25 9.875C43.25 10.1875 43.1354 10.4688 42.9062 10.7188C42.6771 10.9688 42.3542 11.125 41.9375 11.1875H38.9062C38.2812 11.1667 37.6875 11.1771 37.125 11.2188C36.5833 11.2396 36.0729 11.25 35.5938 11.25H34.4375C34.2917 11.25 34.1458 11.2604 34 11.2812C33.8542 11.2812 33.7083 11.2917 33.5625 11.3125V11.4375V12.75ZM39.375 22.9062C41.0625 22.8646 42.6042 22.8021 44 22.7188C45.4167 22.6146 46.6875 22.4792 47.8125 22.3125H48.0625C48.5 22.3125 48.8229 22.4167 49.0312 22.625C49.2604 22.8333 49.4062 23.0521 49.4688 23.2812C49.4688 23.7188 49.3854 24.0521 49.2188 24.2812C49.0729 24.5104 48.7812 24.6979 48.3438 24.8438C46.9062 25.0521 45.3125 25.2188 43.5625 25.3438C41.8333 25.4479 39.9167 25.5 37.8125 25.5C35.6875 25.5 33.7917 25.4583 32.125 25.375C30.4792 25.2917 29.0312 25.1875 27.7812 25.0625C27.4271 25.0208 27.1354 24.8854 26.9062 24.6562C26.6771 24.4062 26.5625 24.1042 26.5625 23.75C26.5625 23.4167 26.6667 23.1354 26.875 22.9062C27.0833 22.6562 27.3542 22.5104 27.6875 22.4688C30.5 22.7812 33.5104 22.9375 36.7188 22.9375V22.2188C36.7188 22.2604 36.7083 22.2812 36.6875 22.2812C36.6875 22.2812 36.6562 21.3333 36.5938 19.4375C36.6771 19.0417 36.8333 18.75 37.0625 18.5625C37.3125 18.3542 37.5729 18.25 37.8438 18.25C38.3854 18.25 38.7604 18.4583 38.9688 18.875C39.1771 19.2917 39.2917 19.75 39.3125 20.25C39.3542 20.7292 39.3542 21.1771 39.3125 21.5938C39.2917 22.0104 39.3125 22.2188 39.375 22.2188V22.1562V22.9062ZM45.4375 34.625C45.4167 34.8542 45.3854 35.1354 45.3438 35.4688C45.3021 35.8021 45.2188 36.1146 45.0938 36.4062C44.9896 36.6979 44.8333 36.9479 44.625 37.1562C44.4167 37.3646 44.1354 37.4688 43.7812 37.4688C43.6771 37.4688 43.5521 37.4479 43.4062 37.4062C43.2604 37.3854 43.1146 37.3333 42.9688 37.25C42.8438 37.1667 42.7292 37.0417 42.625 36.875C42.5417 36.7292 42.5 36.5208 42.5 36.25C42.5 36.0625 42.5312 35.8229 42.5938 35.5312L42.6875 34.9688C42.7292 34.7188 42.7604 34.4896 42.7812 34.2812C42.8229 34.0729 42.8542 33.8542 42.875 33.625C42.9167 33.3958 42.9479 33.125 42.9688 32.8125C42.9896 32.5 43 32.1146 43 31.6562C43 31.3646 42.9479 31.1354 42.8438 30.9688C42.7396 30.7812 42.5938 30.6354 42.4062 30.5312C42.2396 30.4271 42.0521 30.3542 41.8438 30.3125C41.6354 30.2708 41.4271 30.2396 41.2188 30.2188C40.7604 30.1979 40.3333 30.1771 39.9375 30.1562C39.5417 30.1146 39.1458 30.0833 38.75 30.0625C38.3542 30.0417 37.9479 30.0208 37.5312 30C37.1146 29.9792 36.6667 29.9688 36.1875 29.9688C35.25 29.9688 34.4271 29.9792 33.7188 30C33.0104 30 32.4062 30 31.9062 30C31.0938 29.875 30.6875 29.5104 30.6875 28.9062C30.6875 28.6146 30.7708 28.3125 30.9375 28C31.1042 27.6667 31.375 27.4375 31.75 27.3125C32.6042 27.3125 33.4062 27.3333 34.1562 27.375C34.9271 27.3958 35.6458 27.4167 36.3125 27.4375L40.9062 27.5625L42.0312 27.6562C42.4479 27.6979 42.9167 27.8021 43.4375 27.9688C43.9792 28.1354 44.4271 28.4271 44.7812 28.8438C45.1979 29.3646 45.4375 29.8229 45.5 30.2188C45.5833 30.5938 45.625 31.0208 45.625 31.5C45.625 31.9375 45.6042 32.4167 45.5625 32.9375C45.5208 33.4583 45.4792 34.0208 45.4375 34.625ZM58.5125 12.75C58.7417 12.7708 58.9917 12.7812 59.2625 12.7812C59.5333 12.7812 59.825 12.7812 60.1375 12.7812C60.4292 12.7812 60.7417 12.7812 61.075 12.7812C61.4083 12.7812 61.7521 12.7708 62.1063 12.75L66.45 12.6562C66.8667 12.7812 67.1792 12.9688 67.3875 13.2188C67.5958 13.4688 67.7 13.7292 67.7 14C67.5958 14.75 67.1688 15.1875 66.4188 15.3125L62.1063 15.4062C61.6688 15.4271 61.2417 15.4479 60.825 15.4688C60.4292 15.4688 60.0542 15.4688 59.7 15.4688C59.5333 15.4688 59.3771 15.4688 59.2313 15.4688C59.1063 15.4479 58.9813 15.4375 58.8563 15.4375L59.1688 16.5L59.45 17.0625C59.4708 17.0833 59.5125 17.1042 59.575 17.125C59.6583 17.125 59.8042 17.125 60.0125 17.125H60.3563H60.825C61.2417 17.125 61.7729 17.1042 62.4188 17.0625C63.0646 17.0208 63.7 16.9688 64.325 16.9062C64.95 16.8438 65.5021 16.7917 65.9813 16.75C66.4604 16.6875 66.7417 16.6458 66.825 16.625C67.1375 16.5625 67.3979 16.5312 67.6063 16.5312C67.9604 16.5312 68.2521 16.6562 68.4813 16.9062C68.7104 17.1354 68.825 17.4688 68.825 17.9062C68.825 18.2188 68.7521 18.4688 68.6063 18.6562C68.4604 18.8438 68.2104 19 67.8563 19.125C67.5229 19.2292 67.0646 19.3229 66.4813 19.4062C65.9188 19.4688 65.2 19.5312 64.325 19.5938C63.2417 19.6979 62.3146 19.7708 61.5438 19.8125C60.7729 19.8333 60.1479 19.8438 59.6688 19.8438C59.1896 19.8438 58.8042 19.8021 58.5125 19.7188C58.2208 19.6146 57.9708 19.4688 57.7625 19.2812C57.575 19.0938 57.4083 18.875 57.2625 18.625C57.1375 18.375 56.9917 18.0938 56.825 17.7812L56.3875 16.8125C56.3667 16.7083 56.3042 16.5208 56.2 16.25C56.1167 15.9792 56.0333 15.6042 55.95 15.125L55.7938 14.2812C55.7729 14.2396 55.7521 14.125 55.7313 13.9375C55.7313 13.75 55.7313 13.5625 55.7313 13.375C55.7104 13.1458 55.7 12.9062 55.7 12.6562C55.7208 12.6146 55.7208 12.5208 55.7 12.375C55.7 12.2083 55.7208 11.9896 55.7625 11.7188C55.8042 11.1354 55.8875 10.6458 56.0125 10.25C56.1583 9.85417 56.45 9.53125 56.8875 9.28125C57.3458 9.01042 58.0125 8.8125 58.8875 8.6875C59.7625 8.54167 60.95 8.44792 62.45 8.40625C62.9292 8.40625 63.4188 8.41667 63.9188 8.4375C64.4396 8.4375 64.9083 8.44792 65.325 8.46875C65.7625 8.48958 66.1271 8.51042 66.4188 8.53125C66.7313 8.53125 66.9188 8.53125 66.9813 8.53125C67.4188 8.67708 67.7313 8.875 67.9188 9.125C68.1063 9.35417 68.2 9.60417 68.2 9.875C68.2 10.1875 68.0854 10.4688 67.8563 10.7188C67.6271 10.9688 67.3042 11.125 66.8875 11.1875H63.8563C63.2313 11.1667 62.6375 11.1771 62.075 11.2188C61.5333 11.2396 61.0229 11.25 60.5438 11.25H59.3875C59.2417 11.25 59.0958 11.2604 58.95 11.2812C58.8042 11.2812 58.6583 11.2917 58.5125 11.3125V11.4375V12.75ZM64.325 22.9062C66.0125 22.8646 67.5542 22.8021 68.95 22.7188C70.3667 22.6146 71.6375 22.4792 72.7625 22.3125H73.0125C73.45 22.3125 73.7729 22.4167 73.9813 22.625C74.2104 22.8333 74.3563 23.0521 74.4188 23.2812C74.4188 23.7188 74.3354 24.0521 74.1688 24.2812C74.0229 24.5104 73.7313 24.6979 73.2938 24.8438C71.8563 25.0521 70.2625 25.2188 68.5125 25.3438C66.7833 25.4479 64.8667 25.5 62.7625 25.5C60.6375 25.5 58.7417 25.4583 57.075 25.375C55.4292 25.2917 53.9813 25.1875 52.7313 25.0625C52.3771 25.0208 52.0854 24.8854 51.8563 24.6562C51.6271 24.4062 51.5125 24.1042 51.5125 23.75C51.5125 23.4167 51.6167 23.1354 51.825 22.9062C52.0333 22.6562 52.3042 22.5104 52.6375 22.4688C55.45 22.7812 58.4604 22.9375 61.6688 22.9375V22.2188C61.6688 22.2604 61.6583 22.2812 61.6375 22.2812C61.6375 22.2812 61.6063 21.3333 61.5438 19.4375C61.6271 19.0417 61.7833 18.75 62.0125 18.5625C62.2625 18.3542 62.5229 18.25 62.7938 18.25C63.3354 18.25 63.7104 18.4583 63.9188 18.875C64.1271 19.2917 64.2417 19.75 64.2625 20.25C64.3042 20.7292 64.3042 21.1771 64.2625 21.5938C64.2417 22.0104 64.2625 22.2188 64.325 22.2188V22.1562V22.9062ZM70.3875 34.625C70.3667 34.8542 70.3354 35.1354 70.2938 35.4688C70.2521 35.8021 70.1688 36.1146 70.0438 36.4062C69.9396 36.6979 69.7833 36.9479 69.575 37.1562C69.3667 37.3646 69.0854 37.4688 68.7313 37.4688C68.6271 37.4688 68.5021 37.4479 68.3563 37.4062C68.2104 37.3854 68.0646 37.3333 67.9188 37.25C67.7938 37.1667 67.6792 37.0417 67.575 36.875C67.4917 36.7292 67.45 36.5208 67.45 36.25C67.45 36.0625 67.4813 35.8229 67.5438 35.5312L67.6375 34.9688C67.6792 34.7188 67.7104 34.4896 67.7313 34.2812C67.7729 34.0729 67.8042 33.8542 67.825 33.625C67.8667 33.3958 67.8979 33.125 67.9188 32.8125C67.9396 32.5 67.95 32.1146 67.95 31.6562C67.95 31.3646 67.8979 31.1354 67.7938 30.9688C67.6896 30.7812 67.5438 30.6354 67.3563 30.5312C67.1896 30.4271 67.0021 30.3542 66.7938 30.3125C66.5854 30.2708 66.3771 30.2396 66.1688 30.2188C65.7104 30.1979 65.2833 30.1771 64.8875 30.1562C64.4917 30.1146 64.0958 30.0833 63.7 30.0625C63.3042 30.0417 62.8979 30.0208 62.4813 30C62.0646 29.9792 61.6167 29.9688 61.1375 29.9688C60.2 29.9688 59.3771 29.9792 58.6688 30C57.9604 30 57.3563 30 56.8563 30C56.0438 29.875 55.6375 29.5104 55.6375 28.9062C55.6375 28.6146 55.7208 28.3125 55.8875 28C56.0542 27.6667 56.325 27.4375 56.7 27.3125C57.5542 27.3125 58.3563 27.3333 59.1063 27.375C59.8771 27.3958 60.5958 27.4167 61.2625 27.4375L65.8563 27.5625L66.9813 27.6562C67.3979 27.6979 67.8667 27.8021 68.3875 27.9688C68.9292 28.1354 69.3771 28.4271 69.7313 28.8438C70.1479 29.3646 70.3875 29.8229 70.45 30.2188C70.5333 30.5938 70.575 31.0208 70.575 31.5C70.575 31.9375 70.5542 32.4167 70.5125 32.9375C70.4708 33.4583 70.4292 34.0208 70.3875 34.625Z" fill="#007AFF"/>
</svg>
